<?xml version="1.0" standalone="no"?>
<!DOCTYPE svg PUBLIC "-//W3C//DTD SVG 20010904//EN"
 "http://www.w3.org/TR/2001/REC-SVG-20010904/DTD/svg10.dtd">
<svg version="1.0" xmlns="http://www.w3.org/2000/svg"
 width="255.000000pt" height="255.000000pt" viewBox="0 0 255.000000 255.000000"
 preserveAspectRatio="xMidYMid meet">
<metadata>
Created by potrace 1.14, written by Peter Selinger 2001-2017
</metadata>
<g transform="translate(0.000000,255.000000) scale(0.100000,-0.100000)"
fill="#000000" stroke="none">
<path d="M1110 2429 c-52 -26 -106 -64 -149 -104 l-66 -63 -95 -4 c-205 -10
-318 -101 -402 -323 -102 -269 -109 -313 -106 -650 l4 -281 27 -56 c25 -50
143 -178 165 -178 4 0 7 -37 7 -82 0 -66 5 -92 22 -124 27 -50 89 -108 136
-125 32 -11 35 -15 31 -43 -3 -17 -17 -63 -31 -103 l-25 -72 -106 -44 c-59
-24 -159 -65 -222 -91 -63 -26 -126 -55 -140 -66 -25 -19 -15 -20 1183 -20
l1207 0 0 85 0 84 -67 20 c-38 11 -115 33 -173 50 -58 16 -132 40 -166 53
-105 40 -178 125 -176 205 1 17 -5 37 -13 43 -22 18 -18 33 16 66 42 39 79
119 79 171 0 38 6 49 63 110 158 169 193 234 228 430 23 127 19 193 -15 265
-37 78 -140 155 -351 264 l-120 62 -13 51 c-16 65 -57 134 -135 229 -80 98
-116 134 -180 177 -28 20 -74 51 -101 70 -47 34 -51 35 -141 35 -89 0 -96 -2
-175 -41z m23 -146 c-7 -2 -19 -2 -25 0 -7 3 -2 5 12 5 14 0 19 -2 13 -5z
m-43 -13 c0 -5 -19 -9 -42 -9 -40 1 -41 2 -13 9 44 11 55 11 55 0z m100 -20
c0 -12 -17 -12 -45 0 -17 7 -15 9 13 9 17 1 32 -3 32 -9z m95 -36 c17 -7 50
-18 74 -24 23 -6 41 -13 39 -16 -6 -6 -147 35 -177 51 l-26 15 30 -6 c17 -4
44 -12 60 -20z m490 -394 c3 -5 1 -10 -4 -10 -6 0 -11 5 -11 10 0 6 2 10 4 10
3 0 8 -4 11 -10z"/>
</g>
</svg>
